# xmcd
#
# Track frame offsets:
#	150
#	24957
#	44711
#	66928
#	84062
#	102976
#	120373
#	145613
#	163834
#	177690
#	196007
#	212616
#	229727
#	256652
#	278725
#	299775
#
# Disc length: 4235
#
# Revision: 1
# Processed by: cddbd v1.5.1PL0 Copyright (c) Steve Scherf et al.
# Submitted via: VisiTrax 2.9.5.181 - For more info visit www.synapsa.com
# Normalized: r0:DSETVAR1
#
DISCID=e1108910
DTITLE=Various Artist - Classic Cuts  - Soul - R&B CC 28
DYEAR=2000
DGENRE=R&B - Soul
TTITLE0=Donna Allen - Serious
TTITLE1=Bell Biv Devoe - Poison
TTITLE2=Mary J Blige - Real Love
TTITLE3=Chimes - Heaven
TTITLE4=En Vogue - My Lovin
TTITLE5=Family Stand - Ghetto Heaven
TTITLE6=Fresh 4 - Wishing On A Star
TTITLE7=Glen Goldsmith - Dreaming
TTITLE8=Orange Juice Jones - The Rain
TTITLE9=Levert - Cassanova
TTITLE10=Mantronics - Got To Have Your Love
TTITLE11=Soul II Soul - Back To Life (However Do You Want Me)
TTITLE12=Keith Sweat - I Want Her
TTITLE13=SWV - Right Here
TTITLE14=Ralf  Tresvant - Sensitivity
TTITLE15=Jody Watley - Looking For A New Love
EXTD=CC28
EXTT0=
EXTT1=
EXTT2=
EXTT3=
EXTT4=
EXTT5=
EXTT6=
EXTT7=
EXTT8=
EXTT9=
EXTT10=
EXTT11=
EXTT12=
EXTT13=
EXTT14=
EXTT15=
PLAYORDER=
